<svg width="12" height="12" viewBox="0 0 12 12" fill="none" xmlns="http://www.w3.org/2000/svg">
<g clip-path="url(#clip0_957_13619)">
<path d="M12 11.5001C12 11.7761 11.776 12.0001 11.5 12.0001H1.5C0.673 12.0001 0 11.3271 0 10.5001V0.500078C0.003 -0.153922 0.997 -0.153422 1 0.500078V10.5001C1 10.7756 1.2245 11.0001 1.5 11.0001H11.5C11.776 11.0001 12 11.2241 12 11.5001ZM11.571 4.95008L10.5605 3.93958C9.9935 3.37258 9.0055 3.37258 8.439 3.93958L7.4995 4.87858L5.56 2.93958C4.9935 2.37258 4.0055 2.37258 3.439 2.93958L2.439 3.93958C2.1555 4.22258 1.9995 4.59958 1.9995 5.00008V8.50008C1.9995 9.32708 2.6725 10.0001 3.4995 10.0001H10.5025C11.3275 10.0001 12.0005 9.32908 12.0025 8.50458L12.01 6.01508C12.011 5.61808 11.8515 5.22958 11.571 4.95008Z" fill="currentColor"/>
</g>
<defs>
<clipPath id="clip0_957_13619">
<rect width="12" height="12" fill="white"/>
</clipPath>
</defs>
</svg>
