<svg width="20" height="20" viewBox="0 0 20 20" fill="none" xmlns="http://www.w3.org/2000/svg">
<g clip-path="url(#clip0_1061_19611)">
<path d="M2.7316 8.69745C3.22076 8.21162 4.0116 8.21162 4.4991 8.70245C4.98576 9.19162 4.9841 9.98328 4.4941 10.47L3.53993 11.4183C2.1541 12.8041 2.1541 15.06 3.53993 16.4458C4.9341 17.8391 7.1891 17.8516 8.56493 16.4758L9.5291 15.5058C10.0149 15.0158 10.8058 15.015 11.2966 15.5008C11.7866 15.9875 11.7883 16.7791 11.3016 17.2691L10.3349 18.2416C9.16326 19.4133 7.62243 19.9983 6.0791 19.9983C4.52243 19.9983 2.9616 19.4033 1.77243 18.2141C-0.587572 15.8533 -0.587572 12.0125 1.77493 9.64912L2.73076 8.69828L2.7316 8.69745ZM0.365762 2.13412C-0.122572 1.64662 -0.122572 0.854116 0.365762 0.366616C0.854095 -0.121717 1.64493 -0.121717 2.13326 0.366616L6.59993 4.83245L9.66409 1.77412C12.0241 -0.586717 15.8666 -0.586717 18.2266 1.77412C20.5866 4.13495 20.5866 7.97578 18.2266 10.3358L15.1666 13.4008L19.6324 17.8666C20.1208 18.3541 20.1208 19.1466 19.6324 19.6341C19.3883 19.8783 19.0683 20 18.7483 20C18.4283 20 18.1083 19.8783 17.8641 19.6341L0.365762 2.13412ZM16.4591 8.56912C17.8441 7.18245 17.8441 4.92745 16.4591 3.54162C15.0724 2.15578 12.8174 2.15578 11.4308 3.54162L8.36743 6.59912L9.99909 8.23078L12.0324 6.19828C12.5208 5.71078 13.3116 5.71078 13.7999 6.19828C14.2883 6.68578 14.2883 7.47828 13.7999 7.96662L11.7666 9.99912L13.3991 11.6316L16.4583 8.56745L16.4591 8.56912ZM6.28826 11.9516C5.75243 12.3866 5.6716 13.1741 6.1066 13.71C6.35326 14.0141 6.7141 14.1716 7.07743 14.1716C7.35409 14.1716 7.63326 14.08 7.86493 13.8916C8.40076 13.4566 8.48493 12.6666 8.04993 12.1308C7.61576 11.595 6.83243 11.5091 6.29493 11.9466L6.28826 11.9516Z" fill="currentColor"/>
</g>
<defs>
<clipPath id="clip0_1061_19611">
<rect width="20" height="20" fill="white"/>
</clipPath>
</defs>
</svg>
