<svg width="12" height="12" viewBox="0 0 12 12" fill="none" xmlns="http://www.w3.org/2000/svg">
<g clip-path="url(#clip0_1223_26391)">
<path d="M7.2286 4.0651C7.18723 4.02284 7.15459 3.97286 7.13254 3.91799C7.1105 3.86312 7.09947 3.80445 7.1001 3.74532C7.10072 3.6862 7.11299 3.62777 7.1362 3.57338C7.1594 3.519 7.19309 3.46971 7.23535 3.42835C7.2776 3.38698 7.32759 3.35434 7.38245 3.33229C7.43732 3.31025 7.49599 3.29922 7.55512 3.29985C7.61425 3.30047 7.67267 3.31274 7.72706 3.33595C7.78145 3.35915 7.83073 3.39284 7.8721 3.4351L8.7001 4.28155V1.0501C8.7001 0.93075 8.74751 0.816291 8.8319 0.7319C8.91629 0.647508 9.03075 0.600098 9.1501 0.600098C9.26944 0.600098 9.3839 0.647508 9.4683 0.7319C9.55269 0.816291 9.6001 0.93075 9.6001 1.0501V4.28155L10.4281 3.4351C10.5116 3.34976 10.6257 3.30111 10.7451 3.29985C10.8645 3.29858 10.9795 3.3448 11.0648 3.42835C11.1502 3.51189 11.1988 3.62591 11.2001 3.74532C11.2014 3.86474 11.1551 3.97976 11.0716 4.0651L9.93985 5.2216C9.73205 5.4304 9.45007 5.5485 9.1555 5.5501C9.15269 5.55078 9.14976 5.55078 9.14695 5.5501C9.00147 5.55014 8.85742 5.52146 8.72306 5.46571C8.58869 5.40995 8.46666 5.32822 8.36395 5.2252L7.2286 4.0651ZM10.9501 5.5501C10.8307 5.5501 10.7163 5.59751 10.6319 5.6819C10.5475 5.76629 10.5001 5.88075 10.5001 6.0001V9.1501C10.5001 9.50814 10.3579 9.85152 10.1047 10.1047C9.85152 10.3579 9.50814 10.5001 9.1501 10.5001H2.8501C2.49206 10.5001 2.14868 10.3579 1.8955 10.1047C1.64233 9.85152 1.5001 9.50814 1.5001 9.1501V4.68205L4.40935 7.5913C4.83194 8.00961 5.4023 8.24463 5.99692 8.24547C6.59154 8.24632 7.16257 8.01291 7.58635 7.5958L8.43325 6.77275C8.47631 6.73172 8.51082 6.68257 8.53476 6.62812C8.55871 6.57368 8.57163 6.51503 8.57277 6.45557C8.57391 6.3961 8.56326 6.337 8.54141 6.28167C8.51957 6.22635 8.48698 6.17591 8.44552 6.13326C8.40406 6.09062 8.35456 6.05661 8.29988 6.03321C8.2452 6.00981 8.18642 5.99749 8.12695 5.99695C8.06747 5.99641 8.00848 6.00766 7.95338 6.03006C7.89828 6.05246 7.84817 6.08556 7.80595 6.12745L6.95455 6.955C6.69729 7.20023 6.35551 7.33703 6.0001 7.33703C5.64468 7.33703 5.30291 7.20023 5.04565 6.955L1.66255 3.5701C1.77631 3.35344 1.947 3.17191 2.15625 3.04504C2.3655 2.91817 2.60539 2.85077 2.8501 2.8501H6.0001C6.11944 2.8501 6.2339 2.80269 6.3183 2.7183C6.40269 2.6339 6.4501 2.51944 6.4501 2.4001C6.4501 2.28075 6.40269 2.16629 6.3183 2.0819C6.2339 1.99751 6.11944 1.9501 6.0001 1.9501H2.8501C2.25358 1.95081 1.6817 2.18809 1.2599 2.6099C0.838095 3.0317 0.600812 3.60358 0.600098 4.2001L0.600098 9.1501C0.600812 9.74661 0.838095 10.3185 1.2599 10.7403C1.6817 11.1621 2.25358 11.3994 2.8501 11.4001H9.1501C9.74661 11.3994 10.3185 11.1621 10.7403 10.7403C11.1621 10.3185 11.3994 9.74661 11.4001 9.1501V6.0001C11.4001 5.88075 11.3527 5.76629 11.2683 5.6819C11.1839 5.59751 11.0694 5.5501 10.9501 5.5501Z" fill="currentColor"/>
</g>
<defs>
<clipPath id="clip0_1223_26391">
<rect width="12" height="12" fill="white"/>
</clipPath>
</defs>
</svg>
