<svg width="12" height="12" viewBox="0 0 12 12" fill="none" xmlns="http://www.w3.org/2000/svg">
<g clip-path="url(#clip0_1252_27393)">
<path d="M9.5 9H11.77C11.5965 9.4565 11.33 9.877 10.9745 10.2325L10.2325 10.975C9.8765 11.3305 9.4565 11.597 9 11.7705V9.5005C9 9.225 9.224 9 9.5 9ZM2.756 2.625H2.3985L2.401 3.3615L2.756 3.36C2.9625 3.36 3.137 3.192 3.137 2.9925C3.137 2.793 2.9625 2.625 2.756 2.625ZM12 2.5V7.7575C12 7.839 11.9935 7.9195 11.988 8H9.5C8.673 8 8 8.673 8 9.5V11.988C7.9195 11.9935 7.839 12 7.7575 12H2.5C1.1215 12 0 10.8785 0 9.5V2.5C0 1.1215 1.1215 0 2.5 0H9.5C10.8785 0 12 1.1215 12 2.5ZM3.762 2.9925C3.762 2.4455 3.311 2 2.756 2H2.085C1.9125 2 1.7725 2.14 1.7725 2.3125V4.722C1.7725 4.8945 1.9125 5.0345 2.085 5.0345C2.2575 5.0345 2.3975 4.8945 2.3975 4.722V3.9865L2.756 3.985C3.3105 3.985 3.762 3.5395 3.762 2.9925ZM6.125 2.3C6.125 2.1345 5.9905 2 5.825 2C5.6595 2 5.525 2.1345 5.525 2.3V3.5235L4.946 2.216C4.8875 2.0845 4.7575 2 4.6135 2C4.413 2 4.25 2.1625 4.25 2.3635V4.7C4.25 4.8655 4.3845 5 4.55 5C4.7155 5 4.85 4.8655 4.85 4.7V3.4795L5.429 4.784C5.4875 4.9155 5.6175 5 5.7615 5C5.9625 5 6.125 4.837 6.125 4.6365V2.3ZM8.625 3.594C8.625 3.4385 8.499 3.313 8.344 3.313H7.969C7.8135 3.313 7.688 3.439 7.688 3.594C7.688 3.749 7.814 3.875 7.969 3.875H8.0255V4.0505C8.0255 4.23 7.8905 4.387 7.711 4.399C7.5145 4.412 7.3505 4.256 7.3505 4.0625V2.9485C7.3505 2.7855 7.4615 2.639 7.621 2.607C7.727 2.5855 7.8215 2.6165 7.893 2.676C7.948 2.722 8.016 2.7505 8.0875 2.7505H8.1105C8.381 2.7505 8.511 2.415 8.3085 2.236C8.1415 2.088 7.9215 1.999 7.68 2.0005C7.1615 2.0045 6.7495 2.441 6.7495 2.96V4.042C6.7495 4.5675 7.1795 5.0105 7.705 5.0005C8.2145 4.991 8.6245 4.575 8.6245 4.063L8.625 3.594Z" fill="currentColor"/>
</g>
<defs>
<clipPath id="clip0_1252_27393">
<rect width="12" height="12" fill="white"/>
</clipPath>
</defs>
</svg>
