<svg width="32" height="32" viewBox="0 0 32 32" fill="none" xmlns="http://www.w3.org/2000/svg">
<g clip-path="url(#clip0_978_3170)">
<path d="M18 13.9999V20.6666C18 21.7733 17.1066 22.6666 16 22.6666C14.8933 22.6666 14 21.7733 14 20.6666V13.9999C14 12.8933 14.8933 11.9999 16 11.9999C17.1066 11.9999 18 12.8933 18 13.9999ZM16 25.3333C14.8933 25.3333 14 26.2266 14 27.3333C14 28.4399 14.8933 29.3333 16 29.3333C17.1066 29.3333 18 28.4399 18 27.3333C18 26.2266 17.1066 25.3333 16 25.3333ZM30.7333 19.7466L20.4133 3.63992C19.4133 2.19992 17.76 1.33325 16 1.33325C14.24 1.33325 12.5866 2.19992 11.5466 3.70659L1.31995 19.6799C-0.133379 21.7599 -0.400046 24.2799 0.626621 26.2399C1.65329 28.2133 3.74662 29.3333 6.38662 29.3333H8.67995C9.78662 29.3333 10.68 28.4399 10.68 27.3333C10.68 26.2266 9.78662 25.3333 8.67995 25.3333H6.38662C5.74662 25.3333 4.61329 25.2133 4.17329 24.3866C3.83995 23.7466 3.99995 22.8266 4.63995 21.8933L14.8666 5.91992C15.24 5.38659 15.7866 5.33325 16 5.33325C16.2133 5.33325 16.76 5.38659 17.0933 5.85325L27.4133 21.9599C28.0133 22.8133 28.1733 23.7466 27.84 24.3866C27.4133 25.2133 26.2666 25.3333 25.6266 25.3333H23.3333C22.2266 25.3333 21.3333 26.2266 21.3333 27.3333C21.3333 28.4399 22.2266 29.3333 23.3333 29.3333H25.6266C28.2533 29.3333 30.36 28.1999 31.3866 26.2399C32.4133 24.2799 32.1466 21.7599 30.7466 19.7466H30.7333Z" fill="currentColor"/>
</g>
<defs>
<clipPath id="clip0_978_3170">
<rect width="32" height="32" fill="white"/>
</clipPath>
</defs>
</svg>
