<svg viewBox="0 0 20 20" fill="none" xmlns="http://www.w3.org/2000/svg">

<path d="M3.14222 11.1498C2.97722 11.349 2.73972 11.4523 2.49972 11.4523C2.31305 11.4523 2.12472 11.3898 1.96972 11.2615C0.718054 10.2282 0.000553377 8.70484 0.000553377 7.08234C0.000553377 6.58068 0.0697201 6.08401 0.20472 5.60568C0.32972 5.16318 0.791387 4.90234 1.23305 5.03151C1.67639 5.15651 1.93305 5.61651 1.80805 6.05984C1.71472 6.38984 1.66722 6.73484 1.66722 7.08318C1.66722 8.20651 2.16472 9.26068 3.03139 9.97651C3.38639 10.2698 3.43639 10.7948 3.14305 11.1498H3.14222ZM12.4997 16.6665H10.4164C8.34889 16.6665 6.66639 14.984 6.66639 12.9165C6.66639 12.3157 6.80389 11.7432 7.07472 11.2123C7.28389 10.8023 7.12139 10.3007 6.71139 10.0907C6.30222 9.88068 5.79972 10.044 5.58972 10.454C5.20305 11.2107 4.99889 12.0623 4.99889 12.9165C4.99889 15.9032 7.42889 18.3332 10.4156 18.3332H12.4989C12.9597 18.3332 13.3322 17.9607 13.3322 17.4998C13.3322 17.039 12.9597 16.6665 12.4989 16.6665H12.4997ZM19.7556 18.5773C20.0814 18.9032 20.0814 19.4298 19.7556 19.7557C19.5931 19.9182 19.3797 19.9998 19.1664 19.9998C18.9531 19.9998 18.7397 19.9182 18.5772 19.7557L0.243887 1.42234C-0.0819466 1.09651 -0.0819466 0.569842 0.243887 0.244009C0.56972 -0.0818246 1.09639 -0.0818246 1.42222 0.244009L3.28222 2.10401C3.95222 1.81734 4.68305 1.66651 5.41639 1.66651H9.58305C12.5697 1.66651 14.9997 4.09651 14.9997 7.08318C14.9997 8.86151 14.1197 10.5132 12.6947 11.5165L16.9789 15.8007C17.8339 15.0915 18.3331 14.0415 18.3331 12.9165C18.3331 11.7915 17.8356 10.739 16.9689 10.0232C16.6139 9.72984 16.5639 9.20484 16.8564 8.84984C17.1497 8.49568 17.6731 8.44484 18.0297 8.73734C19.2814 9.77068 19.9989 11.294 19.9989 12.9165C19.9989 14.4907 19.3231 15.9615 18.1606 16.9832L19.7547 18.5773H19.7556ZM4.59972 3.42151L8.89472 7.71651C9.38639 7.57234 9.89639 7.49984 10.4164 7.49984C10.8772 7.49984 11.2497 7.87234 11.2497 8.33318C11.2497 8.79401 10.8772 9.16651 10.4164 9.16651C10.3931 9.16651 10.3689 9.16651 10.3456 9.16651L11.4906 10.3115C12.6214 9.64234 13.3331 8.41401 13.3331 7.08234C13.3331 5.01484 11.6506 3.33234 9.58305 3.33234H5.41639C5.13722 3.33234 4.86472 3.36318 4.59972 3.42151Z" fill="currentColor"/>

</svg>
